<?xml version="1.0" encoding="UTF-8" standalone="no"?>
<svg
   xmlns:dc="http://purl.org/dc/elements/1.1/"
   xmlns:cc="http://creativecommons.org/ns#"
   xmlns:rdf="http://www.w3.org/1999/02/22-rdf-syntax-ns#"
   xmlns:svg="http://www.w3.org/2000/svg"
   xmlns="http://www.w3.org/2000/svg"
   xmlns:sodipodi="http://sodipodi.sourceforge.net/DTD/sodipodi-0.dtd"
   xmlns:inkscape="http://www.inkscape.org/namespaces/inkscape"
   enable-background="new 0 0 512 512"
   height="512px"
   id="Layer_1"
   version="1.1"
   viewBox="0 0 512 512"
   width="512px"
   xml:space="preserve"
   inkscape:version="0.91 r13725"
   sodipodi:docname="close.svg"><metadata
     id="metadata9"><rdf:RDF><cc:Work
         rdf:about=""><dc:format>image/svg+xml</dc:format><dc:type
           rdf:resource="http://purl.org/dc/dcmitype/StillImage" /></cc:Work></rdf:RDF></metadata><defs
     id="defs7" /><sodipodi:namedview
     pagecolor="#ffffff"
     bordercolor="#666666"
     borderopacity="1"
     objecttolerance="10"
     gridtolerance="10"
     guidetolerance="10"
     inkscape:pageopacity="0"
     inkscape:pageshadow="2"
     inkscape:window-width="1544"
     inkscape:window-height="932"
     id="namedview5"
     showgrid="false"
     inkscape:zoom="0.4609375"
     inkscape:cx="256"
     inkscape:cy="256"
     inkscape:window-x="0"
     inkscape:window-y="0"
     inkscape:window-maximized="0"
     inkscape:current-layer="Layer_1" /><path
     d="M74.966,437.013c-99.97-99.97-99.97-262.065,0-362.037c100.002-99.97,262.066-99.97,362.067,0  c99.971,99.971,99.971,262.067,0,362.037C337.032,536.998,174.968,536.998,74.966,437.013z M391.782,120.227  c-75.001-74.985-196.564-74.985-271.534,0c-75.001,74.985-75.001,196.55,0,271.535c74.97,74.986,196.533,74.986,271.534,0  C466.754,316.775,466.754,195.212,391.782,120.227z M188.124,369.137l-45.251-45.266l67.876-67.877l-67.876-67.876l45.251-45.267  L256,210.743l67.877-67.892l45.25,45.267l-67.876,67.876l67.876,67.877l-45.25,45.266L256,301.245L188.124,369.137z"
     id="path3"
     style="fill:#e34738;fill-opacity:1" /></svg>