<?xml version="1.0" encoding="UTF-8" standalone="no"?>
<!DOCTYPE svg PUBLIC "-//W3C//DTD SVG 1.1//EN"
"http://www.w3.org/Graphics/SVG/1.1/DTD/svg11.dtd">
<svg version="1.1" xmlns="http://www.w3.org/2000/svg" xmlns:xlink="http://www.w3.org/1999/xlink">
<defs>
<style type="text/css"><![CDATA[
.g4_1{
fill: none;
stroke: #000000;
stroke-width: 4;
stroke-linecap: butt;
stroke-linejoin: miter;
}
.g3_1{
fill: none;
stroke: #000000;
stroke-width: 2;
stroke-linecap: butt;
stroke-linejoin: miter;
}
.g2_1{
fill: none;
stroke: #000000;
stroke-width: 2;
stroke-linecap: square;
stroke-linejoin: miter;
}
.g7_1{
}
.g6_1{
fill: none;
stroke: #000000;
stroke-width: 1;
stroke-linecap: square;
stroke-linejoin: miter;
}
.g1_1{
fill: #B4B4B4;
}
.g5_1{
fill: none;
stroke: #000000;
stroke-width: 2;
stroke-linecap: butt;
stroke-linejoin: miter;
stroke-dasharray: 4,2;
}
]]></style>
</defs>
<path d="M285,155l198,0l0,37l-198,0l0,-37Z" class="g1_1" />
<path d="M528,412l22,0l0,37l-22,0l0,-37Z" class="g1_1" />
<path d="M220,559l10,0l0,293l-10,0l0,-293Z" class="g1_1" />
<path d="M319,559l11,0l0,293l-11,0l0,-293Z" class="g1_1" />
<path d="M406,559l12,0l0,293l-12,0l0,-293Z" class="g1_1" />
<path d="M506,559l10,0l0,293l-10,0l0,-293Z" class="g1_1" />
<path d="M648,559l12,0l0,293l-12,0l0,-293Z" class="g1_1" />
<path d="M87,1035l309,0l0,37l-309,0l0,-37Z" class="g1_1" />
<path d="M87,1109l309,0l0,73l-309,0l0,-73Z" class="g1_1" />
<path d="M396,1145l154,0l0,37l-154,0l0,-37Z" class="g1_1" />
<path d="M87,45l815,0" class="g2_1" />
<path d="M132,18l0,27" class="g2_1" />
<path d="M175,18l0,27" class="g2_1" />
<path d="M87,45l0,1137" class="g2_1" />
<path d="M483,45l0,440" class="g2_1" />
<path d="M902,45l0,1100" class="g2_1" />
<path d="M285,45l0,37" class="g2_1" />
<path d="M285,82l198,0" class="g2_1" />
<path d="M483,137l419,0" class="g2_1" />
<path d="M87,155l815,0" class="g2_1" />
<path d="M285,155l0,37" class="g2_1" />
<path d="M285,192l198,0" class="g2_1" />
<path d="M87,265l815,0" class="g2_1" />
<path d="M87,339l396,0" class="g2_1" />
<path d="M285,339l0,36" class="g2_1" />
<path d="M87,375l815,0" class="g2_1" />
<path d="M616,375.8l13,13l150.1,0l12.9,-13" class="g3_1" />
<path d="M638,388l0,61" class="g2_1" />
<path d="M770,388l0,61" class="g2_1" />
<path d="M87,412l815,0" class="g2_1" />
<path d="M198,412.5l13,13l100.6,0l12.9,-13" class="g3_1" />
<path d="M132,412l0,37" class="g2_1" />
<path d="M330,412l0,37" class="g2_1" />
<path d="M374,412l0,37" class="g2_1" />
<path d="M406,412l0,37" class="g2_1" />
<path d="M451,412l0,37" class="g2_1" />
<path d="M528,412l0,37" class="g2_1" />
<path d="M550,412l0,37" class="g2_1" />
<path d="M593,412l0,37" class="g2_1" />
<path d="M550,423l88,0" class="g2_1" />
<path d="M571,423l0,26" class="g2_1" />
<path d="M616,423l0,26" class="g2_1" />
<path d="M87,449l815,0" class="g2_1" />
<path d="M88,450l197,0l0,34L88,484l0,-34Z" class="g4_1" />
<path d="M319,449.2l13,13l106.1,0l12.9,-13" class="g3_1" />
<path d="M385,462l0,23" class="g2_1" />
<path d="M605,449l0,36" class="g2_1" />
<path d="M87,485l815,0" class="g2_1" />
<path d="M770,522l132,0" class="g2_1" />
<path d="M770,522l0,37" class="g2_1" />
<path d="M87,559l815,0" class="g2_1" />
<path d="M132,559l0,293" class="g2_1" />
<path d="M209,559l0,293" class="g2_1" />
<path d="M220,559l0,293" class="g2_1" />
<path d="M230,559l0,293" class="g2_1" />
<path d="M319,559l0,293" class="g2_1" />
<path d="M330,559l0,293" class="g2_1" />
<path d="M406,559l0,293" class="g2_1" />
<path d="M418,559l0,293" class="g2_1" />
<path d="M506,559l0,293" class="g2_1" />
<path d="M516,559l0,293" class="g2_1" />
<path d="M648,559l0,293" class="g2_1" />
<path d="M660,559l0,293" class="g2_1" />
<path d="M241,577l0,275" class="g2_1" />
<path d="M241,577l78,0" class="g2_1" />
<path d="M87,595l133,0" class="g2_1" />
<path d="M241,595l78,0" class="g2_1" />
<path d="M330,595l76,0" class="g2_1" />
<path d="M418,595l88,0" class="g2_1" />
<path d="M516,595l132,0" class="g2_1" />
<path d="M660,595l242,0" class="g2_1" />
<path d="M87,815l122,0" class="g2_1" />
<path d="M516,815l132,0" class="g2_1" />
<path d="M87,852l815,0" class="g2_1" />
<path d="M440,586.7l44,-18.4" class="g2_1" />
<path d="M99,852.5l13,13l51.1,0l12.9,-13" class="g3_1" />
<path d="M176,852.5l13,13l106.1,0l12.9,-13" class="g3_1" />
<path d="M308,852.5l13,13l51.1,0l12.9,-13" class="g3_1" />
<path d="M241,865l0,24" class="g2_1" />
<path d="M396,852l0,330" class="g2_1" />
<path d="M87,889l309,0" class="g2_1" />
<path d="M165,889.2l13,13l128.1,0l12.9,-13" class="g3_1" />
<path d="M241,902l0,23" class="g2_1" />
<path d="M87,925l309,0" class="g2_1" />
<path d="M198,925.8l13,13l62.1,0l12.9,-13" class="g3_1" />
<path d="M241,938l0,24" class="g2_1" />
<path d="M87,962l815,0" class="g2_1" />
<path d="M121,962.5l13,13l216.1,0l12.9,-13" class="g3_1" />
<path d="M241,975l0,24" class="g2_1" />
<path d="M402,1057l493,0" class="g5_1" />
<path d="M87,999l309,0" class="g2_1" />
<path d="M121,999.2l13,13l216.1,0l12.9,-13" class="g3_1" />
<path d="M241,1012l0,170" class="g2_1" />
<path d="M87,1035l309,0" class="g2_1" />
<path d="M87,1072l815,0" class="g2_1" />
<path d="M99,1072.5l13,13l106.1,0l12.9,-13" class="g3_1" />
<path d="M253,1072.5l13,13l106.1,0l12.9,-13" class="g3_1" />
<path d="M87,1109l309,0" class="g2_1" />
<path d="M88,1109.2l13,13l128.1,0l12.9,-13" class="g3_1" />
<path d="M242,1109.2l13,13l128.1,0l12.9,-13" class="g3_1" />
<path d="M402,1130l493,0" class="g5_1" />
<path d="M87,1145l815,0" class="g2_1" />
<path d="M253,1145.8l13,13l106.1,0l12.9,-13" class="g3_1" />
<path d="M407,1145.8l13,13l106.1,0l12.9,-13" class="g3_1" />
<path d="M550,1145l0,37" class="g2_1" />
<path d="M87,1182l463,0" class="g2_1" />
<path d="M351.5,42.5l0,-38" class="g6_1" />
<path d="M356.5,42.5l0,-38" class="g6_1" />
<path d="M359,4l4,0l0,38l-4,0L359,4Z" class="g7_1" />
<path d="M365,4l3,0l0,38l-3,0L365,4Z" class="g7_1" />
<path d="M370.5,42.5l0,-38" class="g6_1" />
<path d="M373.5,42.5l0,-38" class="g6_1" />
<path d="M376.5,42.5l0,-38" class="g6_1" />
<path d="M381,4l4,0l0,38l-4,0L381,4Z" class="g7_1" />
<path d="M387,4l4,0l0,38l-4,0L387,4Z" class="g7_1" />
<path d="M392.5,42.5l0,-38" class="g6_1" />
<path d="M395,4l4,0l0,38l-4,0L395,4Z" class="g7_1" />
<path d="M401.5,42.5l0,-38" class="g6_1" />
<path d="M406,4l4,0l0,38l-4,0L406,4Z" class="g7_1" />
<path d="M411.5,42.5l0,-38" class="g6_1" />
<path d="M414.5,42.5l0,-38" class="g6_1" />
<path d="M417.5,42.5l0,-38" class="g6_1" />
<path d="M420.5,42.5l0,-38" class="g6_1" />
<path d="M426.5,42.5l0,-38" class="g6_1" />
<path d="M429,4l4,0l0,38l-4,0L429,4Z" class="g7_1" />
<path d="M434,4l4,0l0,38l-4,0L434,4Z" class="g7_1" />
<path d="M440.5,42.5l0,-38" class="g6_1" />
<path d="M445.5,42.5l0,-38" class="g6_1" />
<path d="M448.5,42.5l0,-38" class="g6_1" />
<path d="M451,4l4,0l0,38l-4,0L451,4Z" class="g7_1" />
<path d="M456,4l4,0l0,38l-4,0L456,4Z" class="g7_1" />
<path d="M462.5,42.5l0,-38" class="g6_1" />
<path d="M465,4l4,0l0,38l-4,0L465,4Z" class="g7_1" />
<path d="M472.5,42.5l0,-38" class="g6_1" />
<path d="M475,4l4,0l0,38l-4,0L475,4Z" class="g7_1" />
<path d="M481.5,42.5l0,-38" class="g6_1" />
<path d="M484.5,42.5l0,-38" class="g6_1" />
<path d="M487.5,42.5l0,-38" class="g6_1" />
<path d="M492,4l4,0l0,38l-4,0L492,4Z" class="g7_1" />
<path d="M498.5,42.5l0,-38" class="g6_1" />
<path d="M501,4l3,0l0,38l-3,0L501,4Z" class="g7_1" />
<path d="M506,4l4,0l0,38l-4,0L506,4Z" class="g7_1" />
<path d="M511,4l4,0l0,38l-4,0L511,4Z" class="g7_1" />
<path d="M519.5,42.5l0,-38" class="g6_1" />
<path d="M522.5,42.5l0,-38" class="g6_1" />
<path d="M525.5,42.5l0,-38" class="g6_1" />
<path d="M528,4l4,0l0,38l-4,0L528,4Z" class="g7_1" />
<path d="M533.5,42.5l0,-38" class="g6_1" />
<path d="M539.5,42.5l0,-38" class="g6_1" />
<path d="M542,4l4,0l0,38l-4,0L542,4Z" class="g7_1" />
<path d="M547.5,42.5l0,-38" class="g6_1" />
<path d="M550.5,42.5l0,-38" class="g6_1" />
<path d="M553.5,42.5l0,-38" class="g6_1" />
<path d="M559,4l3,0l0,38l-3,0L559,4Z" class="g7_1" />
<path d="M564.5,42.5l0,-38" class="g6_1" />
<path d="M567,4l4,0l0,38l-4,0L567,4Z" class="g7_1" />
<path d="M572.5,42.5l0,-38" class="g6_1" />
<path d="M575.5,42.5l0,-38" class="g6_1" />
<path d="M581,4l4,0l0,38l-4,0L581,4Z" class="g7_1" />
<path d="M586.5,42.5l0,-38" class="g6_1" />
<path d="M589,4l4,0l0,38l-4,0L589,4Z" class="g7_1" />
<path d="M595,4l3,0l0,38l-3,0L595,4Z" class="g7_1" />
<path d="M600,4l4,0l0,38l-4,0L600,4Z" class="g7_1" />
<path d="M608.5,42.5l0,-38" class="g6_1" />
<path d="M611.5,42.5l0,-38" class="g6_1" />
<path d="M614.5,42.5l0,-38" class="g6_1" />
<path d="M617.5,42.5l0,-38" class="g6_1" />
<path d="M620.5,42.5l0,-38" class="g6_1" />
<path d="M625,4l4,0l0,38l-4,0L625,4Z" class="g7_1" />
<path d="M630,4l4,0l0,38l-4,0L630,4Z" class="g7_1" />
<path d="M636.5,42.5l0,-38" class="g6_1" />
<path d="M639.5,42.5l0,-38" class="g6_1" />
<path d="M644.5,42.5l0,-38" class="g6_1" />
<path d="M647,4l4,0l0,38l-4,0L647,4Z" class="g7_1" />
<path d="M653,4l3,0l0,38l-3,0L653,4Z" class="g7_1" />
<path d="M658.5,42.5l0,-38" class="g6_1" />
<path d="M18.5,1100.5l53,0" class="g6_1" />
<path d="M18.5,1094.5l53,0" class="g6_1" />
<path d="M18,1091l0,-4l53,0l0,4l-53,0Z" class="g7_1" />
<path d="M18,1086l0,-4l53,0l0,4l-53,0Z" class="g7_1" />
<path d="M18.5,1080.5l53,0" class="g6_1" />
<path d="M18.5,1077.5l53,0" class="g6_1" />
<path d="M18.5,1074.5l53,0" class="g6_1" />
<path d="M18,1069l0,-4l53,0l0,4l-53,0Z" class="g7_1" />
<path d="M18,1064l0,-4l53,0l0,4l-53,0Z" class="g7_1" />
<path d="M18.5,1058.5l53,0" class="g6_1" />
<path d="M18,1055l0,-4l53,0l0,4l-53,0Z" class="g7_1" />
<path d="M18.5,1050.5l53,0" class="g6_1" />
<path d="M18,1045l0,-4l53,0l0,4l-53,0Z" class="g7_1" />
<path d="M18.5,1039.5l53,0" class="g6_1" />
<path d="M18.5,1036.5l53,0" class="g6_1" />
<path d="M18.5,1033.5l53,0" class="g6_1" />
<path d="M18.5,1030.5l53,0" class="g6_1" />
<path d="M18.5,1025.5l53,0" class="g6_1" />
<path d="M18,1022l0,-4l53,0l0,4l-53,0Z" class="g7_1" />
<path d="M18,1016l0,-4l53,0l0,4l-53,0Z" class="g7_1" />
<path d="M18.5,1011.5l53,0" class="g6_1" />
<path d="M18.5,1006.5l53,0" class="g6_1" />
<path d="M18.5,1002.5l53,0" class="g6_1" />
<path d="M18,999l0,-3l53,0l0,3l-53,0Z" class="g7_1" />
<path d="M18,994l0,-4l53,0l0,4l-53,0Z" class="g7_1" />
<path d="M18.5,989.5l53,0" class="g6_1" />
<path d="M18,986l0,-4l53,0l0,4l-53,0Z" class="g7_1" />
<path d="M18.5,978.5l53,0" class="g6_1" />
<path d="M18,975l0,-4l53,0l0,4l-53,0Z" class="g7_1" />
<path d="M18.5,970.5l53,0" class="g6_1" />
<path d="M18.5,967.5l53,0" class="g6_1" />
<path d="M18.5,964.5l53,0" class="g6_1" />
<path d="M18,958l0,-4l53,0l0,4l-53,0Z" class="g7_1" />
<path d="M18.5,953.5l53,0" class="g6_1" />
<path d="M18,950l0,-4l53,0l0,4l-53,0Z" class="g7_1" />
<path d="M18,944l0,-3l53,0l0,3l-53,0Z" class="g7_1" />
<path d="M18,939l0,-4l53,0l0,4l-53,0Z" class="g7_1" />
<path d="M18.5,931.5l53,0" class="g6_1" />
<path d="M18.5,928.5l53,0" class="g6_1" />
<path d="M18.5,925.5l53,0" class="g6_1" />
<path d="M18,922l0,-4l53,0l0,4l-53,0Z" class="g7_1" />
<path d="M18.5,917.5l53,0" class="g6_1" />
<path d="M18.5,912.5l53,0" class="g6_1" />
<path d="M18,909l0,-4l53,0l0,4l-53,0Z" class="g7_1" />
<path d="M18.5,903.5l53,0" class="g6_1" />
<path d="M18.5,900.5l53,0" class="g6_1" />
<path d="M18.5,897.5l53,0" class="g6_1" />
<path d="M18,892l0,-4l53,0l0,4l-53,0Z" class="g7_1" />
<path d="M18.5,886.5l53,0" class="g6_1" />
<path d="M18,883l0,-3l53,0l0,3l-53,0Z" class="g7_1" />
<path d="M18.5,878.5l53,0" class="g6_1" />
<path d="M18.5,875.5l53,0" class="g6_1" />
<path d="M18,870l0,-4l53,0l0,4l-53,0Z" class="g7_1" />
<path d="M18.5,864.5l53,0" class="g6_1" />
<path d="M18,861l0,-4l53,0l0,4l-53,0Z" class="g7_1" />
<path d="M18,856l0,-4l53,0l0,4l-53,0Z" class="g7_1" />
<path d="M18,850l0,-3l53,0l0,3l-53,0Z" class="g7_1" />
<path d="M18.5,843.5l53,0" class="g6_1" />
<path d="M18.5,840.5l53,0" class="g6_1" />
<path d="M18.5,837.5l53,0" class="g6_1" />
<path d="M18.5,834.5l53,0" class="g6_1" />
<path d="M18.5,831.5l53,0" class="g6_1" />
<path d="M18,825l0,-4l53,0l0,4l-53,0Z" class="g7_1" />
<path d="M18,820l0,-4l53,0l0,4l-53,0Z" class="g7_1" />
<path d="M18.5,815.5l53,0" class="g6_1" />
<path d="M18.5,812.5l53,0" class="g6_1" />
<path d="M18.5,806.5l53,0" class="g6_1" />
<path d="M18,803l0,-4l53,0l0,4l-53,0Z" class="g7_1" />
<path d="M18,798l0,-4l53,0l0,4l-53,0Z" class="g7_1" />
<path d="M18.5,792.5l53,0" class="g6_1" />
</svg>